<svg width="23" height="23" viewBox="0 0 23 23" fill="none" xmlns="http://www.w3.org/2000/svg">
<path d="M11.5 0.459991C5.40155 0.459991 0.458851 5.40269 0.458851 11.5C0.4587 12.95 0.744185 14.3858 1.299 15.7254C1.85382 17.0651 2.6671 18.2823 3.69239 19.3076C4.71769 20.3329 5.93491 21.1462 7.27456 21.701C8.6142 22.2558 10.05 22.5413 11.5 22.5411C17.5962 22.5411 22.54 17.5984 22.54 11.5C22.54 5.40269 17.5962 0.459991 11.5 0.459991ZM12.5304 4.44589C13.6068 4.44589 13.9231 5.07034 13.9231 5.78449C13.9231 6.67574 13.2101 7.50029 11.9922 7.50029C10.9733 7.50029 10.488 6.98854 10.5179 6.14099C10.5179 5.42684 11.1148 4.44589 12.5304 4.44589ZM9.7727 18.1125C9.0367 18.1125 8.49965 17.6651 9.0137 15.7044L9.85665 12.2256C10.0027 11.669 10.0269 11.4459 9.85665 11.4459C9.637 11.4459 8.68135 11.83 8.11785 12.2095L7.751 11.6081C9.53925 10.1142 11.5955 9.23794 12.4752 9.23794C13.2112 9.23794 13.3331 10.1073 12.9663 11.4459L12.0003 15.1029C11.8289 15.7492 11.9025 15.9723 12.0738 15.9723C12.2947 15.9723 13.0169 15.7055 13.7276 15.1455L14.1439 15.7044C12.4039 17.4432 10.5076 18.1125 9.7727 18.1125Z" fill="white"/>
</svg>
